<svg width="41" height="40" viewBox="0 0 41 40" fill="none" xmlns="http://www.w3.org/2000/svg">
<rect x="0.5" width="40" height="40" rx="20" fill="#26303B"/>
<g clip-path="url(#clip0_11_772)">
<path fill-rule="evenodd" clip-rule="evenodd" d="M20.5 11.875C16.0127 11.875 12.375 15.5127 12.375 20C12.375 24.4873 16.0127 28.125 20.5 28.125C24.9873 28.125 28.625 24.4873 28.625 20C28.6203 15.5146 24.9853 11.8797 20.5 11.875ZM21.125 26.8461V21.875H23C23.3452 21.875 23.625 21.5952 23.625 21.25C23.625 20.9048 23.3452 20.625 23 20.625H21.125V18.75C21.125 18.0596 21.6846 17.5 22.375 17.5H23.625C23.9702 17.5 24.25 17.2202 24.25 16.875C24.25 16.5298 23.9702 16.25 23.625 16.25H22.375C20.9943 16.25 19.875 17.3693 19.875 18.75V20.625H18C17.6548 20.625 17.375 20.9048 17.375 21.25C17.375 21.5952 17.6548 21.875 18 21.875H19.875V26.8461C16.2149 26.512 13.4649 23.3582 13.6321 19.6867C13.7994 16.0152 16.8247 13.1246 20.5 13.1246C24.1753 13.1246 27.2006 16.0152 27.3679 19.6867C27.5351 23.3582 24.7851 26.512 21.125 26.8461Z" fill="white"/>
</g>
<defs>
<clipPath id="clip0_11_772">
<rect width="20" height="20" fill="white" transform="translate(10.5 10)"/>
</clipPath>
</defs>
</svg>
