<svg width="41" height="40" viewBox="0 0 41 40" fill="none" xmlns="http://www.w3.org/2000/svg">
<rect x="0.5" width="40" height="40" rx="20" fill="#26303B"/>
<g clip-path="url(#clip0_11_781)">
<path fill-rule="evenodd" clip-rule="evenodd" d="M20.5 16.25C18.4289 16.25 16.75 17.9289 16.75 20C16.75 22.0711 18.4289 23.75 20.5 23.75C22.5711 23.75 24.25 22.0711 24.25 20C24.2478 17.9298 22.5702 16.2522 20.5 16.25ZM20.5 22.5C19.1193 22.5 18 21.3807 18 20C18 18.6193 19.1193 17.5 20.5 17.5C21.8807 17.5 23 18.6193 23 20C23 21.3807 21.8807 22.5 20.5 22.5ZM24.25 11.875H16.75C14.3348 11.8776 12.3776 13.8348 12.375 16.25V23.75C12.3776 26.1652 14.3348 28.1224 16.75 28.125H24.25C26.6652 28.1224 28.6224 26.1652 28.625 23.75V16.25C28.6224 13.8348 26.6652 11.8776 24.25 11.875ZM27.375 23.75C27.375 25.4759 25.9759 26.875 24.25 26.875H16.75C15.0241 26.875 13.625 25.4759 13.625 23.75V16.25C13.625 14.5241 15.0241 13.125 16.75 13.125H24.25C25.9759 13.125 27.375 14.5241 27.375 16.25V23.75ZM25.5 15.9375C25.5 16.4553 25.0803 16.875 24.5625 16.875C24.0447 16.875 23.625 16.4553 23.625 15.9375C23.625 15.4197 24.0447 15 24.5625 15C25.0803 15 25.5 15.4197 25.5 15.9375Z" fill="white"/>
</g>
<defs>
<clipPath id="clip0_11_781">
<rect width="20" height="20" fill="white" transform="translate(10.5 10)"/>
</clipPath>
</defs>
</svg>
