<svg width="41" height="40" viewBox="0 0 41 40" fill="none" xmlns="http://www.w3.org/2000/svg">
<rect x="0.5" width="40" height="40" rx="20" fill="#26303B"/>
<g clip-path="url(#clip0_11_763)">
<path fill-rule="evenodd" clip-rule="evenodd" d="M29.8273 15.3859C29.7307 15.1524 29.5028 15.0001 29.25 15H26.8727C26.1966 13.8498 24.967 13.1382 23.6328 13.125C22.6456 13.1121 21.695 13.498 20.9961 14.1953C20.2768 14.9012 19.8726 15.8673 19.875 16.875V17.3508C16.7297 16.5211 14.157 13.9625 14.1297 13.9352C13.9585 13.7624 13.7027 13.7047 13.4739 13.7872C13.2451 13.8696 13.0849 14.0773 13.0633 14.3195C12.7266 18.0531 13.8109 20.5516 14.782 21.9898C15.2555 22.7009 15.8315 23.338 16.4914 23.8805C15.3016 25.25 13.4281 25.9695 13.4078 25.9773C13.2291 26.0443 13.0908 26.1891 13.0322 26.3707C12.9736 26.5523 13.0012 26.7506 13.107 26.9094C13.1656 26.9969 13.4 27.3039 13.9727 27.5906C14.6805 27.9453 15.6156 28.125 16.75 28.125C22.2711 28.125 26.8844 23.8734 27.3555 18.4031L29.6922 16.0672C29.8709 15.8883 29.9242 15.6195 29.8273 15.3859ZM26.3117 17.6836C26.2046 17.791 26.1401 17.9337 26.1305 18.0852C25.8125 23.0141 21.6938 26.875 16.75 26.875C15.925 26.875 15.3438 26.7656 14.9359 26.6344C15.8352 26.1461 17.0891 25.3063 17.8953 24.0969C17.991 23.9531 18.0229 23.7762 17.9835 23.6081C17.9442 23.44 17.837 23.2957 17.6875 23.2094C17.6508 23.1883 14.257 21.1516 14.25 15.7094C15.5 16.725 17.7852 18.3008 20.3961 18.7398C20.5772 18.7704 20.7626 18.7197 20.903 18.6013C21.0434 18.4829 21.1246 18.3087 21.125 18.125V16.875C21.1236 16.2015 21.394 15.5558 21.875 15.0844C22.3361 14.6224 22.9645 14.3665 23.6172 14.375C24.6062 14.3875 25.5305 14.9906 25.9172 15.8758C26.0168 16.1032 26.2416 16.2501 26.4898 16.25H27.7398L26.3117 17.6836Z" fill="white"/>
</g>
<defs>
<clipPath id="clip0_11_763">
<rect width="20" height="20" fill="white" transform="translate(10.5 10)"/>
</clipPath>
</defs>
</svg>
